<svg width="74" height="65" viewBox="0 0 74 65" fill="none" xmlns="http://www.w3.org/2000/svg">
<g clip-path="url(#clip0_56_76)">
<path d="M50.14 47.8201L44.9 53.3001L43.29 51.1101C42.77 50.4001 41.76 50.2501 41.05 50.7701C40.34 51.2901 40.19 52.3001 40.71 53.0101L43.45 56.7301C43.73 57.1101 44.16 57.3501 44.64 57.3801C44.67 57.3801 44.71 57.3801 44.74 57.3801C45.18 57.3801 45.59 57.2001 45.9 56.8901L52.46 50.0401C53.07 49.4001 53.05 48.3901 52.41 47.7801C51.77 47.1701 50.76 47.1901 50.15 47.8301L50.14 47.8201Z" fill="#1E293B"/>
<path d="M30.52 28.9599L25.28 34.4399L23.67 32.2499C23.15 31.5399 22.14 31.3899 21.43 31.9099C20.72 32.4299 20.57 33.4399 21.09 34.1499L23.83 37.8699C24.11 38.2499 24.54 38.4899 25.02 38.5199C25.05 38.5199 25.09 38.5199 25.12 38.5199C25.56 38.5199 25.97 38.3399 26.28 38.0299L32.84 31.1799C33.45 30.5399 33.43 29.5299 32.79 28.9199C32.15 28.3099 31.14 28.3299 30.53 28.9699L30.52 28.9599Z" fill="#1E293B"/>
<path d="M67.88 9.32H62.79V4.49C62.79 2.29 60.68 0.5 58.09 0.5C55.5 0.5 53.39 2.29 53.39 4.49V9.32H41.46V4.49C41.46 2.29 39.35 0.5 36.76 0.5C34.17 0.5 32.06 2.29 32.06 4.49V9.32H20.13V4.49C20.13 2.29 18.02 0.5 15.43 0.5C12.84 0.5 10.73 2.29 10.73 4.49V9.32H5.64C2.53 9.32 0 11.85 0 14.96V58.56C0 61.67 2.53 64.21 5.64 64.21H67.88C70.99 64.21 73.52 61.68 73.52 58.56V14.97C73.52 11.86 70.99 9.33 67.88 9.33V9.32ZM3.2 26.17H17.33V41.82H3.2V26.17ZM19.62 26.17H35.64V41.82H19.62V26.17ZM37.93 26.17H53.95V41.82H37.93V26.17ZM56.24 26.17H70.32V41.82H56.24V26.17ZM56.59 9.32V4.49C56.59 4.17 57.19 3.7 58.09 3.7C58.99 3.7 59.59 4.18 59.59 4.49V15.88C59.59 16.2 58.99 16.67 58.09 16.67C57.19 16.67 56.59 16.19 56.59 15.88V9.32ZM35.27 9.32V4.49C35.27 4.17 35.87 3.7 36.77 3.7C37.67 3.7 38.27 4.18 38.27 4.49V15.88C38.27 16.2 37.67 16.67 36.77 16.67C35.87 16.67 35.27 16.19 35.27 15.88V9.32ZM13.94 9.32V4.49C13.94 4.17 14.54 3.7 15.44 3.7C16.34 3.7 16.94 4.18 16.94 4.49V15.88C16.94 16.2 16.34 16.67 15.44 16.67C14.54 16.67 13.94 16.19 13.94 15.88V9.32ZM3.2 14.97C3.2 13.62 4.3 12.53 5.64 12.53H10.73V15.89C10.73 18.09 12.84 19.88 15.43 19.88C18.02 19.88 20.13 18.09 20.13 15.89V12.53H32.06V15.89C32.06 18.09 34.17 19.88 36.76 19.88C39.35 19.88 41.46 18.09 41.46 15.89V12.53H53.39V15.89C53.39 18.09 55.5 19.88 58.09 19.88C60.68 19.88 62.79 18.09 62.79 15.89V12.53H67.88C69.23 12.53 70.32 13.63 70.32 14.97V22.97H3.2V14.97ZM3.2 58.57V44.1H17.33V61.01H5.64C4.29 61.01 3.2 59.91 3.2 58.57ZM19.62 44.1H35.64V61.01H19.62V44.1ZM37.93 44.1H53.95V61.01H37.93V44.1ZM70.32 58.57C70.32 59.92 69.22 61.01 67.88 61.01H56.24V44.1H70.32V58.57Z" fill="#1E293B"/>
</g>
<defs>
<clipPath id="clip0_56_76">
<rect width="73.53" height="63.72" fill="white" transform="translate(0 0.5)"/>
</clipPath>
</defs>
</svg>
