<svg width="82" height="72" viewBox="0 0 82 72" fill="none" xmlns="http://www.w3.org/2000/svg">
<g clip-path="url(#clip0_56_63)">
<path d="M72.2936 30.0479V24.5125C72.2936 24.453 72.2936 24.4034 72.2936 24.3439C71.608 17.6974 68.1407 11.5668 62.5186 7.08294C56.7692 2.5197 49.1393 0 41.0098 0C32.8803 0 25.7597 2.30146 20.216 6.84486C15.113 11.0212 11.4988 17.003 9.76517 24.1356C9.73579 24.2645 9.7162 24.3836 9.7162 24.5125V30.038C4.25084 30.5737 0 34.3037 0 38.8074V43.6385C0 48.2116 4.36837 51.9813 9.94147 52.4277C10.3724 55.8203 12.1452 58.7964 14.6918 60.8002V68.9843C14.6918 69.8573 15.397 70.5715 16.259 70.5715C17.1209 70.5715 17.8261 69.8672 17.8261 68.9942V62.6057C19.2267 63.1513 20.7449 63.4588 22.3316 63.4588H24.4766C26.22 65.7305 28.3552 67.6352 30.7745 69.0736C33.9087 70.9286 37.5229 71.9901 41.3624 71.9901C45.2019 71.9901 48.6593 70.9782 51.7446 69.1926C58.5225 65.2841 63.1357 57.6556 63.1357 48.916V36.1984C63.1357 36.1984 63.1357 36.1984 63.1357 36.1885C63.1357 36.1488 63.1357 36.119 63.1357 36.0794C63.1357 36.0595 63.1357 36.0496 63.1357 36.0298C63.1357 36 63.1357 35.9603 63.1161 35.9306C63.1161 35.9107 63.1161 35.8909 63.1161 35.871C63.1161 35.8413 63.1063 35.8115 63.0965 35.7917C63.0965 35.7718 63.0867 35.7421 63.0769 35.7222C63.0769 35.7024 63.0573 35.6826 63.0573 35.6627C63.0475 35.633 63.0377 35.6032 63.028 35.5834C63.028 35.5635 63.0084 35.5536 63.0084 35.5338C62.9986 35.504 62.979 35.4742 62.9692 35.4445C62.9692 35.4246 62.9496 35.4147 62.9398 35.3949C62.9202 35.3651 62.9104 35.3354 62.8908 35.3155C62.881 35.2957 62.8614 35.2858 62.8516 35.2659C62.8321 35.2461 62.8223 35.2163 62.8027 35.1965C62.7831 35.1766 62.7635 35.1568 62.7439 35.137C62.7243 35.1171 62.7145 35.0973 62.6949 35.0873C62.6753 35.0675 62.646 35.0477 62.6264 35.0278C62.6166 35.0179 62.597 34.9981 62.5872 34.9882C62.5676 34.9683 62.5382 34.9485 62.5088 34.9286C62.4892 34.9187 62.4795 34.9088 62.4599 34.889C62.4403 34.8691 62.4109 34.8592 62.3913 34.8493C62.3717 34.8394 62.3521 34.8294 62.3325 34.8096C62.313 34.7997 62.2934 34.7898 62.2738 34.7798C62.2444 34.7699 62.2248 34.7501 62.1954 34.7402C62.1758 34.7402 62.1562 34.7302 62.1464 34.7203C62.1171 34.7104 62.0877 34.7005 62.0485 34.6906C62.0289 34.6906 62.0191 34.6905 61.9995 34.6806C61.9603 34.6806 61.931 34.6608 61.8918 34.6509C61.8918 34.6509 61.8918 34.6509 61.882 34.6509C60.3051 34.3533 58.1503 33.5597 55.8387 32.5577C49.6584 29.8694 42.4006 25.6831 42.3027 25.6236C41.7542 25.3061 41.0686 25.3557 40.569 25.7426C35.995 29.2841 31.1565 31.4467 27.5031 32.7065C24.0358 33.9069 21.6558 34.2937 21.6068 34.3037C21.3032 34.3533 21.0387 34.4822 20.8232 34.6707C20.1376 34.8394 19.6283 35.4643 19.6283 36.2083V48.9259C19.6283 53.0526 20.6567 56.9314 22.4589 60.2844H22.361C20.7253 60.2844 19.1973 59.8578 17.8555 59.1138V32.032C17.8555 20.1279 28.3944 10.4459 41.3624 10.4459C54.3304 10.4459 64.8693 20.1279 64.8693 32.032V69.2819C64.8693 70.1648 65.5745 70.879 66.4365 70.879C67.2984 70.879 68.0036 70.1648 68.0036 69.2918V32.032C68.0036 18.3819 56.0542 7.27142 41.3624 7.27142C26.6706 7.27142 14.7212 18.3819 14.7212 32.032V56.2767C13.634 54.7291 12.9974 52.8443 12.9974 50.8008C12.9974 50.5627 12.9386 50.3345 12.8505 50.1262V33.0736C12.87 32.9744 12.8798 32.8851 12.8798 32.776V24.701C14.4666 18.3323 17.689 13.0052 22.214 9.30504C27.1897 5.22789 33.517 3.16451 41.0392 3.16451C48.5614 3.16451 55.4176 5.44613 60.5989 9.58281C65.5256 13.5112 68.5815 18.8482 69.1887 24.5919V32.4585C69.1887 32.528 69.1887 32.5875 69.1985 32.6569V50.8702C69.1985 51.7432 69.8841 52.4475 70.7461 52.4574H70.8048C70.8538 52.4574 70.9028 52.4574 70.9518 52.4574C77.0538 52.4574 82.0196 48.4894 82.0196 43.6186V38.7875C82.0196 34.2838 77.7785 30.5638 72.323 30.0182L72.2936 30.0479ZM22.743 48.9358V37.3194C23.6832 37.1309 25.5344 36.7142 27.9145 35.9206C30.1183 35.1866 32.7726 34.135 35.5934 32.6569C37.5621 31.6252 39.5994 30.3852 41.6171 28.8873C42.9295 29.6313 45.5251 31.0697 48.5124 32.5875C50.9904 33.8473 53.7329 35.1568 56.2403 36.1587C57.592 36.7043 58.8653 37.1507 60.0014 37.4682V48.9259C60.0014 59.8975 51.6467 68.8157 41.3722 68.8157C36.4651 68.8157 31.9988 66.782 28.6687 63.4588H31.0487C31.705 64.6889 32.9881 65.5222 34.467 65.5222H38.9138C41.049 65.5222 42.7924 63.7564 42.7924 61.5938C42.7924 59.4313 41.049 57.6655 38.9138 57.6655H34.467C32.7824 57.6655 31.3524 58.7567 30.8137 60.2745H26.0829C23.9771 57.0504 22.743 53.1419 22.743 48.916V48.9358ZM78.8559 43.6484C78.8559 46.4359 76.0253 48.7572 72.3034 49.2235V33.2422C76.0155 33.7085 78.8559 36.0298 78.8559 38.8173V43.6484ZM3.13426 38.8173C3.13426 36.0298 5.96488 33.7085 9.68681 33.2422V49.2235C5.97468 48.7572 3.13426 46.4359 3.13426 43.6484V38.8173Z" fill="white"/>
</g>
<defs>
<clipPath id="clip0_56_63">
<rect width="82" height="72" fill="white"/>
</clipPath>
</defs>
</svg>
