<svg width="83" height="43" viewBox="0 0 83 43" fill="none" xmlns="http://www.w3.org/2000/svg">
<g clip-path="url(#clip0_56_91)">
<path d="M82.0534 38.7663C81.5348 38.7663 81.115 39.1888 81.115 39.7108C81.115 40.4813 80.5387 41.1027 79.8226 41.1027C79.1064 41.1027 78.5302 40.4813 78.5302 39.7108C78.5302 39.1888 78.1104 38.7663 77.5918 38.7663H77.5506C77.0321 38.7663 76.6122 39.1888 76.6122 39.7108C76.6122 40.4813 76.036 41.1027 75.3199 41.1027C74.6778 41.1027 74.1427 40.589 74.044 39.9262L78.7442 26.6202L79.8473 23.7287C80.0037 23.3227 79.9461 22.8588 79.6991 22.5025C79.4522 22.1462 79.0488 21.9308 78.6125 21.9308H66.3638C66.0428 21.9308 65.7382 22.0468 65.4912 22.2622L65.3348 22.4031V18.5753C65.3348 18.0534 64.915 17.6308 64.3964 17.6308H63.7461V11.8229C63.7461 11.301 63.3263 10.8784 62.8077 10.8784H54.4608C53.9422 10.8784 53.5224 11.301 53.5224 11.8229V17.6308H52.8392V11.8229C52.8392 11.301 52.4193 10.8784 51.9007 10.8784H43.5538C43.0352 10.8784 42.6154 11.301 42.6154 11.8229V17.6308H39.3227C38.8041 17.6308 38.3843 18.0534 38.3843 18.5753V23.6956H33.5359L30.6877 12.7592C30.5395 12.1792 30.0127 11.7649 29.4118 11.7649H25.3947V1.32563C25.3947 0.596532 24.8021 0 24.0777 0H15.4756C14.7512 0 14.1585 0.596532 14.1585 1.32563V11.7649H9.26888C8.66797 11.7649 8.14938 12.1709 7.99297 12.7592L5.12835 23.7536H2.16495C1.79452 23.7618 1.43233 23.9193 1.18538 24.201C0.938427 24.4827 0.814952 24.8555 0.856111 25.2283C0.872574 25.3775 1.26769 29.0229 2.19787 32.9418C2.86464 35.7671 3.62195 37.9875 4.48628 39.6114C4.48628 39.6445 4.47805 39.6776 4.47805 39.7025C4.47805 40.473 3.90183 41.0944 3.18567 41.0944C2.46952 41.0944 1.8933 40.473 1.8933 39.7025C1.8933 39.1805 1.47349 38.758 0.954891 38.758C0.436295 38.758 0.0164795 39.1805 0.0164795 39.7025C0.0164795 41.517 1.44056 42.9917 3.19391 42.9917C4.0747 42.9917 4.87317 42.6189 5.44939 42.0141C6.0256 42.6189 6.82408 42.9917 7.70486 42.9917C8.58565 42.9917 9.38413 42.6189 9.96035 42.0141C10.5366 42.6189 11.335 42.9917 12.2158 42.9917C13.0966 42.9917 13.8951 42.6189 14.4713 42.0141C15.0475 42.6189 15.846 42.9917 16.7268 42.9917C17.6076 42.9917 18.406 42.6189 18.9823 42.0141C19.5585 42.6189 20.357 42.9917 21.2377 42.9917C22.1185 42.9917 22.917 42.6189 23.4932 42.0141C24.0694 42.6189 24.8679 42.9917 25.7487 42.9917C26.6295 42.9917 27.428 42.6189 28.0042 42.0141C28.5804 42.6189 29.3789 42.9917 30.2597 42.9917C31.1404 42.9917 31.9389 42.6189 32.5151 42.0141C33.0914 42.6189 33.8898 42.9917 34.7706 42.9917C35.6514 42.9917 36.4499 42.6189 37.0261 42.0141C37.6023 42.6189 38.4008 42.9917 39.2816 42.9917C40.1624 42.9917 40.9361 42.6272 41.5124 42.0389C42.0886 42.6272 42.8706 42.9917 43.7431 42.9917C44.6157 42.9917 45.4224 42.6189 45.9986 42.0141C46.5748 42.6189 47.3733 42.9917 48.2541 42.9917C49.1349 42.9917 49.9334 42.6189 50.5096 42.0141C51.0858 42.6189 51.8843 42.9917 52.7651 42.9917C53.6459 42.9917 54.4443 42.6189 55.0205 42.0141C55.5968 42.6189 56.3952 42.9917 57.276 42.9917C58.1568 42.9917 58.9553 42.6189 59.5315 42.0141C60.1077 42.6189 60.9062 42.9917 61.787 42.9917C62.6678 42.9917 63.4663 42.6189 64.0425 42.0141C64.6187 42.6189 65.4172 42.9917 66.2979 42.9917C67.1787 42.9917 67.9772 42.6189 68.5534 42.0141C69.1296 42.6189 69.9281 42.9917 70.8089 42.9917C71.5498 42.9917 72.2412 42.7266 72.7763 42.2792C72.8997 42.2212 73.0068 42.1549 73.1055 42.0638C73.6735 42.6355 74.4555 42.9917 75.3116 42.9917C76.1677 42.9917 76.9909 42.6189 77.5671 42.0141C78.1433 42.6189 78.9418 42.9917 79.8226 42.9917C81.5759 42.9917 83 41.517 83 39.7025C83 39.1805 82.5802 38.758 82.0616 38.758L82.0534 38.7663ZM22.7441 4.32486H16.7844V2.65125H22.7441V4.32486ZM16.7844 11.7649V6.98439H22.7441V11.7649H16.7844ZM15.3274 14.4162C15.3686 14.4162 15.4179 14.4162 15.4591 14.4162H24.0612C24.1106 14.4162 24.1518 14.4162 24.1929 14.4162H28.3746L30.7865 23.6956L30.8029 23.7453H7.8448L10.2731 14.4162H15.3274ZM7.82834 26.3965H32.5151C32.6386 26.3965 32.7539 26.38 32.8691 26.3468H64.3635C64.6845 26.3468 64.9891 26.2308 65.2361 26.0154L66.8577 24.5821H76.6945L76.2747 25.6923C76.2747 25.6923 76.2747 25.7089 76.2665 25.7254L75.3363 28.3601H3.95945C3.83598 27.6145 3.7372 26.9516 3.65488 26.4048H7.82011L7.82834 26.3965ZM40.2529 23.6956V19.5281H46.7148V24.2092H40.2529V23.7039V23.6956ZM44.484 12.7674H50.9459V17.4486H44.484V12.7674ZM55.391 12.7674H61.8528V17.4486H55.391V12.7674ZM63.4498 24.201H56.9879V19.5198H63.4498V24.201ZM55.0617 19.5198V24.201H48.5998V19.5198H55.0617ZM70.8007 41.1027C70.7348 41.1027 70.669 41.1027 70.6031 41.0861C69.9857 40.9784 69.5083 40.4067 69.5083 39.7108C69.5083 39.1888 69.0885 38.7663 68.5699 38.7663H68.5287C68.0101 38.7663 67.5903 39.1888 67.5903 39.7108C67.5903 40.4813 67.0141 41.1027 66.2979 41.1027C65.5818 41.1027 65.0056 40.4813 65.0056 39.7108C65.0056 39.1888 64.5858 38.7663 64.0672 38.7663H64.026C63.5074 38.7663 63.0876 39.1888 63.0876 39.7108C63.0876 40.4813 62.5114 41.1027 61.7952 41.1027C61.0791 41.1027 60.5028 40.4813 60.5028 39.7108C60.5028 39.1888 60.083 38.7663 59.5644 38.7663H59.515C58.9964 38.7663 58.5766 39.1888 58.5766 39.7108C58.5766 40.4813 58.0004 41.1027 57.2843 41.1027C56.5681 41.1027 55.9919 40.4813 55.9919 39.7108C55.9919 39.1888 55.5721 38.7663 55.0535 38.7663H55.0123C54.4937 38.7663 54.0739 39.1888 54.0739 39.7108C54.0739 40.4813 53.4977 41.1027 52.7815 41.1027C52.0654 41.1027 51.4892 40.4813 51.4892 39.7108C51.4892 39.1888 51.0693 38.7663 50.5507 38.7663H50.5096C49.991 38.7663 49.5712 39.1888 49.5712 39.7108C49.5712 40.4813 48.995 41.1027 48.2788 41.1027C47.5626 41.1027 46.9864 40.4813 46.9864 39.7108C46.9864 39.1888 46.5666 38.7663 46.048 38.7663H46.0069C45.4883 38.7663 45.0684 39.1888 45.0684 39.7108C45.0684 40.4813 44.4922 41.1027 43.7761 41.1027C43.0599 41.1027 42.5084 40.4979 42.4837 39.7522C42.4837 39.7356 42.4837 39.7274 42.4837 39.7108C42.4837 39.1888 42.0639 38.7663 41.5453 38.7663C41.0267 38.7663 40.6069 39.1888 40.6069 39.7108C40.6069 39.7274 40.6069 39.7356 40.6069 39.7522C40.5904 40.4979 40.0142 41.1027 39.3145 41.1027C38.6148 41.1027 38.0221 40.4813 38.0221 39.7108C38.0221 39.1888 37.6023 38.7663 37.0837 38.7663H37.0426C36.524 38.7663 36.1042 39.1888 36.1042 39.7108C36.1042 40.4813 35.5279 41.1027 34.8118 41.1027C34.0956 41.1027 33.5194 40.4813 33.5194 39.7108C33.5194 39.1888 33.0996 38.7663 32.581 38.7663H32.5398C32.0212 38.7663 31.6014 39.1888 31.6014 39.7108C31.6014 40.4813 31.0252 41.1027 30.309 41.1027C29.5929 41.1027 29.0167 40.4813 29.0167 39.7108C29.0167 39.1888 28.5969 38.7663 28.0783 38.7663H28.0371C27.5185 38.7663 27.0987 39.1888 27.0987 39.7108C27.0987 40.4813 26.5225 41.1027 25.8063 41.1027C25.0902 41.1027 24.514 40.4813 24.514 39.7108C24.514 39.1888 24.0941 38.7663 23.5755 38.7663H23.5344C23.0158 38.7663 22.596 39.1888 22.596 39.7108C22.596 40.4813 22.0198 41.1027 21.3036 41.1027C20.5874 41.1027 20.0112 40.4813 20.0112 39.7108C20.0112 39.1888 19.5914 38.7663 19.0728 38.7663H19.0317C18.5131 38.7663 18.0932 39.1888 18.0932 39.7108C18.0932 40.4813 17.517 41.1027 16.8009 41.1027C16.0847 41.1027 15.5085 40.4813 15.5085 39.7108C15.5085 39.1888 15.0887 38.7663 14.5701 38.7663H14.5289C14.0103 38.7663 13.5905 39.1888 13.5905 39.7108C13.5905 40.4813 13.0143 41.1027 12.2981 41.1027C11.582 41.1027 11.0058 40.4813 11.0058 39.7108C11.0058 39.1888 10.586 38.7663 10.0674 38.7663H10.0262C9.5076 38.7663 9.08779 39.1888 9.08779 39.7108C9.08779 40.0091 8.99724 40.2908 8.84907 40.5145C8.75852 40.4482 8.65974 40.3819 8.55273 40.3322C7.30151 39.7854 5.92682 36.8027 4.87317 32.3453C4.67561 31.5002 4.49451 30.6551 4.34634 29.868H74.9L71.097 40.6222C71.0476 40.7713 71.0229 40.9287 71.0229 41.0778C71.0229 41.0778 71.0229 41.0861 71.0229 41.0944C70.9818 41.0944 70.9488 41.0944 70.9077 41.0944L70.8007 41.1027Z" fill="#1E293B"/>
</g>
<defs>
<clipPath id="clip0_56_91">
<rect width="83" height="43" fill="white"/>
</clipPath>
</defs>
</svg>
