<svg width="230" height="50" viewBox="0 0 230 50" fill="none" xmlns="http://www.w3.org/2000/svg">
<path d="M190.146 45.6464C189.951 45.8417 189.951 46.1583 190.146 46.3536L193.328 49.5355C193.524 49.7308 193.84 49.7308 194.036 49.5355C194.231 49.3403 194.231 49.0237 194.036 48.8284L191.207 46L194.036 43.1716C194.231 42.9763 194.231 42.6597 194.036 42.4645C193.84 42.2692 193.524 42.2692 193.328 42.4645L190.146 45.6464ZM190.5 46.5H223V45.5H190.5V46.5ZM229.5 40V8H228.5V40H229.5ZM223 1.5H21.5V2.5H223V1.5ZM229.5 8C229.5 4.41015 226.59 1.5 223 1.5V2.5C226.038 2.5 228.5 4.96243 228.5 8H229.5ZM223 46.5C226.59 46.5 229.5 43.5899 229.5 40H228.5C228.5 43.0376 226.038 45.5 223 45.5V46.5Z" fill="white"/>
<circle cx="2" cy="2" r="2" fill="white"/>
</svg>
