<svg width="289" height="96" viewBox="0 0 289 96" fill="none" xmlns="http://www.w3.org/2000/svg">
<path d="M0.646447 91.6464C0.451184 91.8417 0.451184 92.1583 0.646447 92.3536L3.82843 95.5355C4.02369 95.7308 4.34027 95.7308 4.53553 95.5355C4.7308 95.3403 4.7308 95.0237 4.53553 94.8284L1.70711 92L4.53553 89.1716C4.7308 88.9763 4.7308 88.6597 4.53553 88.4645C4.34027 88.2692 4.02369 88.2692 3.82843 88.4645L0.646447 91.6464ZM1 92.5H274V91.5H1V92.5ZM288.5 78V17H287.5V78H288.5ZM274 2.5H209.864V3.5H274V2.5ZM288.5 17C288.5 8.99187 282.008 2.5 274 2.5V3.5C281.456 3.5 287.5 9.54416 287.5 17H288.5ZM274 92.5C282.008 92.5 288.5 86.0081 288.5 78H287.5C287.5 85.4558 281.456 91.5 274 91.5V92.5Z" fill="white"/>
<circle cx="197" cy="3" r="3" fill="white"/>
</svg>
