<svg width="83" height="81" viewBox="0 0 83 81" fill="none" xmlns="http://www.w3.org/2000/svg">
<g clip-path="url(#clip0_70_844)">
<path d="M80.72 33.8451H70.55C70.44 33.7351 70.3 33.6451 70.16 33.5751L46.45 22.1551C46.75 21.4251 46.92 20.6251 46.92 19.7851C46.92 16.8751 44.93 14.4151 42.23 13.7051C39.53 12.9951 42.23 10.7551 42.23 10.7551L48.11 2.73506C48.47 2.24506 48.52 1.60506 48.25 1.06506C47.98 0.525059 47.43 0.185059 46.82 0.185059H34.45C33.85 0.185059 33.29 0.525059 33.02 1.06506C32.75 1.60506 32.8 2.24506 33.16 2.73506C33.16 2.73506 38.3486 6.9335 39.04 10.7551C39.3209 12.3076 39.04 14.7951 39.04 14.7951C39.04 14.8651 39.04 14.9251 39.05 14.9951C39.05 15.0351 39.05 15.0651 39.05 15.1051C39.05 15.9851 39.77 16.7051 40.65 16.7051C42.35 16.7051 43.73 18.0851 43.73 19.7851C43.73 21.4851 42.35 22.8651 40.65 22.8651C40.03 22.8651 39.44 22.6851 38.93 22.3451C38.86 22.2951 38.79 22.2451 38.73 22.1951C38.63 22.0651 38.51 21.9551 38.38 21.8751C38.23 21.7151 38.1 21.5351 37.99 21.3451C37.54 20.5851 36.56 20.3251 35.8 20.7651C35.16 21.1351 34.88 21.8851 35.06 22.5751L12.2 33.5851C12.05 33.6551 11.92 33.7451 11.81 33.8551H1.6C0.72 33.8551 0 34.5751 0 35.4551V39.9451C0 40.8251 0.72 41.5451 1.6 41.5451H3.46V73.1351H1.6C0.72 73.1351 0 73.8551 0 74.7351V79.2251C0 80.1051 0.72 80.8251 1.6 80.8251H80.72C81.6 80.8251 82.32 80.1051 82.32 79.2251V74.7351C82.32 73.8551 81.6 73.1351 80.72 73.1351H78.86V41.5451H80.72C81.6 41.5451 82.32 40.8251 82.32 39.9451V35.4551C82.32 34.5751 81.6 33.8551 80.72 33.8551V33.8451ZM37.58 3.38506H43.64L40.61 7.51506L37.58 3.38506ZM79.11 77.6151H3.2V76.3251H79.11V77.6151ZM6.66 41.5351H10.37V73.1051H6.66V41.5351ZM68.23 73.1051H63.68V41.5351H68.23V73.1051ZM14.09 41.5351H18.64V73.1051H14.09V41.5351ZM59.96 73.1051H55.41V41.5351H59.96V73.1051ZM51.7 73.1051H47.15V41.5351H51.7V73.1051ZM43.43 73.1051H38.88V41.5351H43.43V73.1051ZM35.17 73.1051H30.62V41.5351H35.17V73.1051ZM26.9 73.1051H22.35V41.5351H26.9V73.1051ZM75.65 73.1051H71.94V41.5351H75.65V73.1051ZM79.11 38.3351H3.2V37.0451H79.11V38.3351ZM37.22 25.0651C38.23 25.7151 39.41 26.0651 40.62 26.0651C42.06 26.0651 43.39 25.5751 44.45 24.7551L63.32 33.8451H18.99L37.22 25.0651Z" fill="white"/>
</g>
<defs>
<clipPath id="clip0_70_844">
<rect width="82.32" height="80.63" fill="white" transform="translate(0 0.185059)"/>
</clipPath>
</defs>
</svg>
