<svg width="97" height="98" viewBox="0 0 97 98" fill="none" xmlns="http://www.w3.org/2000/svg">
<path d="M48.9552 52.9518C43.7258 52.9518 39.4067 57.2709 39.4067 62.5002C39.4067 67.7295 43.7258 72.0486 48.9552 72.0486C54.1845 72.0486 58.5036 67.7295 58.5036 62.5002C58.5036 57.2709 54.1845 52.9518 48.9552 52.9518Z" fill="#02284D"/>
<path d="M48.9556 85.0236C48.5986 85.2021 48.2417 85.2021 47.8669 85.0236L40.1211 79.9728L28.0562 83.7565V97.4455H35.2665V90.2351C35.2665 89.6997 35.802 89.1464 36.3552 89.1464C36.9085 89.1464 37.4439 89.6818 37.4439 90.2351V97.4455H60.6814V90.0566C60.6814 89.5212 61.2168 88.9679 61.7701 88.9679C62.3055 88.9679 62.8588 89.5033 62.8588 90.0566V97.4455H69.1589V83.7565L57.9864 79.9728L48.9734 85.0236H48.9556Z" fill="#02284D"/>
<path d="M33.0886 44.6702V37.2813C33.0886 36.7459 33.624 36.1926 34.1773 36.1926C34.7127 36.1926 35.266 36.7281 35.266 37.2813V44.6702H41.5661V30.9812L30.3936 27.1975L21.5591 32.2484C21.2021 32.4268 20.8452 32.4268 20.4704 32.2484L12.7246 27.1975L0.659668 30.9812V44.6702H7.87006V37.4598C7.87006 36.9244 8.40548 36.3711 8.95875 36.3711C9.51203 36.3711 10.0474 36.9065 10.0474 37.4598V44.6702H33.1064H33.0886Z" fill="#02284D"/>
<path d="M76.3331 19.2733C81.5624 19.2733 85.8815 14.9542 85.8815 9.72492C85.8815 4.49561 81.5624 0.176514 76.3331 0.176514C71.1038 0.176514 66.7847 4.49561 66.7847 9.72492C66.7847 14.9542 71.1038 19.2733 76.3331 19.2733Z" fill="#02284D"/>
<path d="M21.3804 19.2733C26.6098 19.2733 30.9288 14.9542 30.9288 9.72492C30.9288 4.49561 26.6098 0.176514 21.3804 0.176514C16.1511 0.176514 11.832 4.49561 11.832 9.72492C12.0105 14.9542 16.1511 19.2733 21.3804 19.2733Z" fill="#02284D"/>
<path d="M85.1497 27.1975L76.3152 32.2484C75.9582 32.4268 75.6013 32.4268 75.2265 32.2484L67.4807 27.1975L62.0729 28.8216C61.8944 28.8216 61.7159 29.0001 61.5375 29.0001L55.2373 30.9812V44.6702H62.4477V37.4598C62.4477 36.9244 62.9831 36.3711 63.5364 36.3711C64.0897 36.3711 64.6251 36.9065 64.6251 37.4598V44.6702H87.8625V37.2813C87.8625 36.7459 88.3979 36.1926 88.9512 36.1926C89.4866 36.1926 90.0399 36.7281 90.0399 37.2813V44.6702H96.3401V30.9812L85.1675 27.1975H85.1497Z" fill="#02284D"/>
<path d="M54.345 46.6519C53.8096 46.6519 53.2563 46.1165 53.2563 45.5632V30.0716C53.2563 29.5361 53.6133 29.1792 53.9702 28.9829L58.6463 27.5372C55.398 26.0916 51.6143 25.3777 48.0092 25.3777C44.404 25.3777 41.1557 26.0916 37.9253 27.3588L42.7977 28.9829C43.1546 29.1613 43.5116 29.5183 43.5116 30.0716V45.5632C43.5116 46.0986 42.9762 46.6519 42.4229 46.6519H21.5235C20.988 48.633 20.8096 50.614 20.8096 52.7736C20.8096 63.7676 27.1097 74.0299 36.6581 78.349C36.8366 78.349 36.8366 78.5275 37.0151 78.5275L39.8885 77.6351C40.2455 77.4567 40.424 77.6351 40.7809 77.8136L48.5267 82.686L57.1828 77.6351C57.3612 77.4567 57.7182 77.4567 58.0751 77.6351L60.7701 78.5275C60.8891 78.4085 61.0081 78.2896 61.1271 78.1706C69.9616 74.2084 75.3515 64.66 75.3515 52.5951C75.3515 50.614 75.173 48.4545 74.6376 46.4734L54.2736 46.6519H54.345ZM48.9551 74.2084C42.4764 74.2084 37.4256 68.9791 37.4256 62.6789C37.4256 56.3788 42.6549 51.1495 48.9551 51.1495C55.2552 51.1495 60.4845 56.3788 60.4845 62.6789C60.4845 68.9791 55.2552 74.2084 48.9551 74.2084Z" fill="#02284D"/>
</svg>
