<svg width="75" height="93" viewBox="0 0 75 93" fill="none" xmlns="http://www.w3.org/2000/svg">
<path d="M10.1395 17.8176L-0.000244141 34.8422H18.7455L10.1395 17.8176Z" fill="#02284D"/>
<path d="M0.17041 36.7335L35.5999 90.0566L19.5978 36.7335H0.17041Z" fill="#02284D"/>
<path d="M34.4066 16.6078H11.8606L20.637 33.9732L34.4066 16.6078Z" fill="#02284D"/>
<path d="M52.2834 34.8419L36.4688 17.1187L22.5288 34.8419H52.2834Z" fill="#02284D"/>
<path d="M63.1218 16.6078H38.7012L54.3453 33.9732L63.1218 16.6078Z" fill="#02284D"/>
<path d="M21.6768 36.7335L38.3605 92.4595L53.1526 36.7335H21.6768ZM36.4689 46.8733H33.3673V49.9748C33.3673 50.4861 32.856 51.0144 32.3277 51.0144C31.7995 51.0144 31.2882 50.5031 31.2882 49.9748V46.8733H28.1866C27.6754 46.8733 27.1471 46.362 27.1471 45.8337C27.1471 45.3054 27.6584 44.7942 28.1866 44.7942H31.4586V41.6926C31.4586 41.1814 31.9699 40.6531 32.4982 40.6531C33.0264 40.6531 33.5377 41.1643 33.5377 41.6926V44.7942H36.6393C37.1505 44.7942 37.6788 45.3054 37.6788 45.8337C37.6788 46.362 36.9971 46.8733 36.4689 46.8733Z" fill="#02284D"/>
<path d="M74.9998 34.8422L64.8431 17.8176L56.2371 34.8422H74.9998Z" fill="#02284D"/>
<path d="M41.1042 90.227L75 36.7335H55.3851L41.1042 90.227Z" fill="#02284D"/>
<path d="M18.5749 79.048H15.4734V75.9464C15.4734 75.4352 14.9621 74.9069 14.4338 74.9069C13.9055 74.9069 13.3943 75.4181 13.3943 75.9464V79.048H10.2927C9.78146 79.048 9.25317 79.5592 9.25317 80.0875C9.25317 80.6158 9.76442 81.127 10.2927 81.127H13.3943V84.2286C13.3943 84.7399 13.9055 85.2681 14.4338 85.2681C14.9621 85.2681 15.4734 84.7569 15.4734 84.2286V81.127H18.5749C19.0862 81.127 19.6145 80.6158 19.6145 80.0875C19.6145 79.5592 19.1032 79.048 18.5749 79.048Z" fill="#02284D"/>
<path d="M50.7324 6.62118H53.834V9.55233C53.834 10.0636 54.3452 10.5919 54.8735 10.5919C55.4018 10.5919 55.9131 10.0806 55.9131 9.55233V6.45077H59.0146C59.5259 6.45077 60.0542 5.93952 60.0542 5.41123C60.0542 4.88294 59.5429 4.37169 59.0146 4.37169H55.9131V1.27013C55.9131 0.758878 55.4018 0.230591 54.8735 0.230591C54.3452 0.230591 53.834 0.912253 53.834 1.44054V4.54211H50.7324C50.2212 4.54211 49.6929 5.05336 49.6929 5.58165C49.6929 6.10994 50.2041 6.62118 50.7324 6.62118Z" fill="#02284D"/>
<path d="M72.9209 64.9375H69.8193V61.8359C69.8193 61.3247 69.3081 60.7964 68.7798 60.7964C68.2515 60.7964 67.7402 61.3076 67.7402 61.8359V64.9375H64.6387C64.1274 64.9375 63.5991 65.4487 63.5991 65.977C63.5991 66.5053 64.1104 67.0166 64.6387 67.0166H67.7402V70.1181C67.7402 70.6294 68.2515 71.1577 68.7798 71.1577C69.3081 71.1577 69.8193 70.6464 69.8193 70.1181V67.0166H72.9209C73.4321 67.0166 73.9604 66.5053 73.9604 65.977C73.9604 65.4487 73.4492 64.9375 72.9209 64.9375Z" fill="#02284D"/>
</svg>
