<svg width="87" height="102" viewBox="0 0 87 102" fill="none" xmlns="http://www.w3.org/2000/svg">
<path d="M58.4409 82.7178C57.8895 79.7407 57.3198 76.9656 56.9523 74.0068H38.0416C37.4903 74.0068 36.9206 73.4555 36.9206 72.8858C36.9206 72.3161 37.4719 71.7648 38.0416 71.7648H56.5847C55.4637 65.4612 54.361 59.1577 53.0562 52.2844H33.7597C31.7197 63.9726 29.8636 73.8047 28.375 82.6995H58.4225L58.4409 82.7178Z" fill="#02284D"/>
<path d="M56.4015 28.9265H48.7931H38.0238H30.4338V32.8226H56.4015V28.9265Z" fill="#02284D"/>
<path d="M53.4239 50.0793C55.0962 50.0793 56.3827 48.5907 56.3827 46.5508V43.2061H30.415V46.5508C30.415 48.4069 31.7199 50.0793 33.3738 50.0793H53.4055H53.4239Z" fill="#02284D"/>
<path d="M62.8883 84.7581H59.7274H27.0886H23.7439V91.2638H62.8883V84.7581Z" fill="#02284D"/>
<path d="M57.5037 40.9824H60.8484V38.0236C60.8484 36.3512 59.5436 35.0464 58.0734 35.0464H29.1285C27.4562 35.0464 26.3535 36.3512 26.3535 38.0236V40.9824H57.522H57.5037Z" fill="#02284D"/>
<path d="M38.5928 18.3593C40.2652 19.4803 42.1213 20.0317 43.9775 20.0317C45.4661 20.0317 46.9363 19.6641 48.4249 18.9106C51.7696 17.2382 53.9933 13.7097 53.9933 10.0158C53.9933 4.26362 49.7297 0 43.9775 0C38.2253 0 33.9617 4.4474 33.9617 10.0158C33.9617 13.3606 35.634 16.5031 38.5928 18.3593Z" fill="#02284D"/>
<path d="M46.7529 21.888C46.3854 21.888 46.3854 22.0718 46.2016 22.0718H41.3867C41.2029 22.0718 41.0191 22.0718 40.8353 21.888H40.6516C40.4678 21.888 40.284 21.888 40.284 21.7042H40.1002C39.9164 21.7042 39.7327 21.5205 39.5489 21.5205H39.3651C39.1813 21.5205 38.9976 21.3367 38.9976 21.3367V26.9051H47.7086V21.7042H47.1572C47.1572 21.7042 46.9735 21.7042 46.7897 21.888H46.7529Z" fill="#02284D"/>
<path d="M68.8246 93.4875H17.992C15.2169 93.4875 12.9749 95.3437 12.9749 97.5674V101.647H73.8233V97.5674C73.8233 95.3437 71.5996 93.4875 68.8062 93.4875H68.8246Z" fill="#02284D"/>
<path d="M66.417 52.3028C66.6008 52.3028 66.7845 52.3028 66.9683 52.119L73.0881 48.0392H85.6952C86.2465 48.0392 86.8162 47.4879 86.8162 46.9182C86.8162 46.3485 86.2649 45.7971 85.6952 45.7971H72.7021C72.5184 45.7971 72.3346 45.7971 72.1508 45.9809L65.6635 50.2445C65.1122 50.6121 65.1122 51.1634 65.2959 51.7331C65.8473 52.1007 66.2148 52.2844 66.417 52.2844V52.3028Z" fill="#02284D"/>
<path d="M85.8972 65.2771H71.048L67.1519 61.1973C66.7844 60.8297 66.0309 60.8297 65.6634 61.1973C65.2958 61.5648 65.2958 62.3183 65.6634 62.6859L69.927 66.9495C70.1108 67.1333 70.4783 67.3171 70.6621 67.3171H85.8788C86.4301 67.3171 86.9998 66.7657 86.9998 66.196C86.9998 65.6263 86.6323 65.2771 85.8788 65.2771H85.8972Z" fill="#02284D"/>
<path d="M1.30482 47.8551H16.154L20.05 51.9349C20.2338 52.1187 20.6014 52.3025 20.7851 52.3025C20.9689 52.3025 21.3365 52.1187 21.5202 51.9349C21.8878 51.5674 21.8878 50.8139 21.5202 50.4464L17.2566 46.1827C17.0729 45.999 16.7053 45.8152 16.5215 45.8152H1.12104C0.569709 45.8152 0 46.3665 0 46.9362C0.183777 47.4875 0.551332 47.8551 1.30482 47.8551Z" fill="#02284D"/>
<path d="M17.257 67.1336L21.5206 62.87C21.8882 62.5024 21.8882 61.7489 21.5206 61.3814C21.1531 61.0138 20.3996 61.0138 20.032 61.3814L16.136 65.4612H1.28681C0.73548 65.4612 0.165771 66.0126 0.165771 66.5823C0.165771 67.152 0.717102 67.7033 1.28681 67.7033H16.5035C16.6873 67.5195 17.0548 67.3357 17.2386 67.152L17.257 67.1336Z" fill="#02284D"/>
</svg>
