<svg width="125" height="90" viewBox="0 0 125 90" fill="none" xmlns="http://www.w3.org/2000/svg">
<path d="M19.4704 21.549C24.1129 21.549 28.0624 17.8304 28.0624 12.957C28.0624 8.08357 24.3438 4.36499 19.4704 4.36499C14.597 4.36499 10.8784 8.08357 10.8784 12.957C10.8784 17.8304 14.828 21.549 19.4704 21.549Z" fill="#02284D"/>
<path d="M45.2238 11.5715H45.4547C46.1476 11.8024 47.0715 12.0334 47.9954 12.0334H69.3368C70.7226 12.0334 71.6465 11.5715 72.3625 10.4166C72.5934 9.9547 73.0554 9.72373 73.5173 9.72373C73.7483 9.72373 73.9792 9.72374 74.2102 9.9547L80.0075 12.9804V8.56889L72.1315 3.69548C71.9005 3.46451 71.6696 3.23354 71.4386 3.00258C71.4386 2.8486 71.3616 2.69462 71.2076 2.54064L70.9767 2.30968C70.0528 0.692903 69.5909 0 68.436 0H41.9902V6.72115C41.9902 8.79986 43.1451 10.6707 45.2469 11.5946L45.2238 11.5715Z" fill="#02284D"/>
<path d="M69.1053 67.4657L74.6716 60.5136L78.3902 55.6402L74.9026 52.1526L64.9248 64.4401L69.1053 67.4657Z" fill="#02284D"/>
<path d="M69.5676 14.8054H48.2262C47.5333 14.8054 46.8404 14.8054 46.1475 14.5744V16.8841C46.1475 25.938 52.1757 43.7918 63.5393 43.7918C68.1818 43.7918 71.6463 40.7662 73.7481 38.4565C78.6215 32.6592 81.6241 23.1433 80.7002 16.1912L74.441 12.9346C73.0552 14.0894 71.4384 14.7823 69.5676 14.7823V14.8054ZM70.2605 34.992C67.9508 36.6087 65.849 37.0707 64.0013 37.0707C61.2065 37.0707 58.8969 35.9158 57.742 34.992C57.2801 34.53 57.0491 33.6062 57.5111 33.1442C57.973 32.6823 58.8969 32.4513 59.3588 32.9133C59.5898 33.1442 63.5393 36.4009 68.6437 32.9133C69.3366 32.4513 70.0295 32.6823 70.4914 33.1442C70.9534 33.6062 70.7224 34.53 70.2605 34.992Z" fill="#02284D"/>
<path d="M106.453 21.549C111.096 21.549 115.022 17.8304 115.022 12.957C115.022 8.08357 111.304 4.36499 106.453 4.36499C101.603 4.36499 97.8613 8.08357 97.8613 12.957C97.8613 17.8304 101.811 21.549 106.453 21.549Z" fill="#02284D"/>
<path d="M29.9103 46.1242V39.4031C29.9103 38.7102 30.6032 38.0173 31.2961 38.0173C31.989 38.0173 32.6819 38.7102 32.6819 39.4031V46.1242H38.2482V33.3748L26.1917 29.8872L19.9325 34.5297C19.4706 34.9916 18.7777 34.9916 18.3157 34.5297L12.0565 29.8872L0 33.3748V46.1242H5.33535V39.4031C5.33535 38.7102 6.02825 38.0173 6.72116 38.0173C7.41406 38.0173 8.10696 38.7102 8.10696 39.4031V46.1242H29.9103Z" fill="#02284D"/>
<path d="M113.175 29.8872L106.915 34.2987C106.453 34.5297 105.761 34.5297 105.299 34.2987L99.0394 29.8872L86.9829 33.3748V46.1242H92.3183V39.4031C92.3183 38.7102 93.0112 38.0173 93.7041 38.0173C94.397 38.0173 95.0899 38.7102 95.0899 39.4031V46.1242H116.893V39.4031C116.893 38.7102 117.586 38.0173 118.279 38.0173C118.972 38.0173 119.665 38.7102 119.665 39.4031V46.1242H125V33.3748L113.175 29.8872Z" fill="#02284D"/>
<path d="M70.4914 70.0063C70.3374 70.1603 70.3374 70.1603 70.4914 70.0063C70.3374 70.1603 70.1834 70.2372 70.0295 70.2372H68.6437L62.8464 66.2877L56.5871 70.2372H55.6633C55.2013 70.2372 54.9704 70.0063 54.7394 69.5443L47.3254 56.564L24.5981 62.1303V89.4999H38.2714V74.6487C38.2714 73.9558 38.9643 73.2629 39.6572 73.2629C40.3501 73.2629 41.043 73.9558 41.043 74.6487V89.4999H84.4187V74.6487C84.4187 73.9558 85.1116 73.2629 85.8045 73.2629C86.4974 73.2629 87.1903 73.9558 87.1903 74.6487V89.4999H100.864V63.747L80.908 57.2569L70.4683 70.0063H70.4914Z" fill="#02284D"/>
<path d="M49.6118 55.409L56.3561 67.2345L60.2825 64.9017L60.9754 64.4398L52.8685 52.3833L49.6118 55.409Z" fill="#02284D"/>
</svg>
