<svg width="68" height="82" viewBox="0 0 68 82" fill="none" xmlns="http://www.w3.org/2000/svg">
<g clip-path="url(#clip0_70_848)">
<path d="M33.94 81.6852C52.54 81.6852 67.68 66.5552 67.68 47.9452C67.68 39.0452 64.21 30.9352 58.56 24.8952C61.26 20.4452 64.52 14.4052 64.52 11.0652C64.52 5.13518 59.69 0.305176 53.76 0.305176C47.83 0.305176 43 5.13518 43 11.0652C43 12.3352 43.47 13.9852 44.19 15.7952C40.96 14.7652 37.52 14.2052 33.94 14.2052C27.64 14.2052 21.75 15.9352 16.7 18.9552C15.13 16.3252 12.26 14.5552 8.98 14.5552C4.03 14.5652 0 18.5852 0 23.5352C0 25.8352 1.84 29.6452 3.73 32.9452C1.47 37.4752 0.2 42.5652 0.2 47.9552C0.2 66.5552 15.33 81.6952 33.94 81.6952V81.6852ZM14.52 49.5552C14.72 52.9952 15.56 56.5152 17.01 60.0552C13.83 61.3152 10.95 62.9252 8.51 64.8352C5.56 60.4152 3.74 55.1852 3.45 49.5552H14.52ZM19.45 38.3552C23.42 39.6552 27.79 40.4452 32.33 40.6652V46.3452H17.72C17.9 43.5752 18.53 40.8952 19.45 38.3552ZM50.15 46.3452H35.54V40.7252C40.11 40.6752 44.54 40.0452 48.62 38.9052C49.43 41.2852 49.99 43.7752 50.15 46.3452ZM48.06 58.4752C44.14 57.4352 39.9 56.8552 35.54 56.8052V49.5552H50.15C49.95 52.6752 49.18 55.6752 48.06 58.4752ZM17.73 49.5552H32.34V56.8652C28.01 57.0752 23.85 57.8052 20.03 58.9952C18.8 56.0452 17.95 52.8752 17.73 49.5552ZM32.34 60.0752V76.0752C29.43 73.3252 24.69 68.2852 21.39 61.9152C24.79 60.8952 28.49 60.2652 32.34 60.0752ZM35.54 76.0652V60.0052C39.44 60.0552 43.22 60.5352 46.73 61.4252C43.42 68.0052 38.52 73.2452 35.54 76.0652ZM35.54 37.5252V19.6252C38.74 22.6952 44.16 28.5952 47.44 35.9152C43.73 36.9152 39.7 37.4752 35.54 37.5252ZM32.34 19.6252V37.4552C28.22 37.2452 24.27 36.5352 20.68 35.3952C23.98 28.3152 29.21 22.6352 32.34 19.6252ZM10.42 67.3952C10.42 67.3952 10.44 67.3852 10.45 67.3752C12.7 65.6052 15.37 64.1252 18.34 62.9652C19.76 65.8052 21.57 68.6252 23.75 71.4152C26 74.2852 28.24 76.6052 29.94 78.2252C22.12 77.1952 15.22 73.1952 10.42 67.4052V67.3952ZM37.94 78.2252C39.65 76.6052 41.88 74.2852 44.13 71.4152C46.47 68.4352 48.38 65.3952 49.85 62.3552C52.96 63.4052 55.79 64.7952 58.2 66.4752C53.38 72.7752 46.17 77.1552 37.94 78.2352V78.2252ZM60.02 63.8252C57.43 62.0252 54.43 60.5452 51.13 59.4052C52.42 56.0852 53.17 52.7752 53.36 49.5452H64.43C64.16 54.7552 62.58 59.6152 60.01 63.8152L60.02 63.8252ZM53.36 46.3452C53.2 43.5852 52.63 40.7752 51.66 37.9252C55.03 36.7152 58.08 35.1352 60.68 33.2252C62.85 37.1552 64.18 41.6052 64.43 46.3452H53.36ZM61.31 11.0752C61.31 13.3052 58.85 18.1652 56.19 22.6152C55.62 23.5652 55.05 24.4952 54.48 25.3852C54.23 25.7752 53.99 26.1552 53.75 26.5252C53.04 25.4452 52.3 24.2552 51.56 23.0352C50.46 21.2152 49.38 19.3052 48.49 17.5252C47.14 14.8552 46.2 12.4652 46.2 11.0852C46.2 6.91518 49.59 3.52518 53.76 3.52518C57.93 3.52518 61.32 6.91518 61.32 11.0852L61.31 11.0752ZM46.13 19.9552C48.65 24.7752 51.86 29.4652 52.43 30.2952C52.73 30.7252 53.22 30.9852 53.75 30.9852C54.28 30.9852 54.77 30.7252 55.07 30.2952C55.3 29.9652 55.94 29.0252 56.79 27.7152C57.57 28.5952 58.31 29.5252 58.98 30.4952C56.57 32.3052 53.69 33.8052 50.51 34.9452C48.97 31.4052 46.84 27.8552 44.14 24.3652C42 21.5952 39.86 19.3352 38.19 17.7052C40.97 18.0952 43.64 18.8652 46.13 19.9552ZM29.7 17.7152C28.03 19.3452 25.89 21.6052 23.75 24.3752C21.21 27.6452 19.18 30.9752 17.67 34.2952C16.52 33.8152 15.41 33.2952 14.37 32.7152C16.79 28.4752 17.97 25.4652 17.97 23.5452C17.97 23.0252 17.92 22.5252 17.84 22.0252C21.38 19.8152 25.4 18.3152 29.71 17.7152H29.7ZM8.98 17.7652C11.15 17.7652 13.04 18.9652 14.03 20.7352C14.49 21.5652 14.76 22.5252 14.76 23.5452C14.76 23.7352 14.72 23.9852 14.65 24.3052C14.35 25.5852 13.42 27.8852 11.66 31.0452C11.18 31.9052 10.63 32.8252 10.03 33.8052C9.7 34.3352 9.36 34.8752 8.99 35.4352C8.41 34.5452 7.88 33.7052 7.4 32.8952C6.7 31.7352 6.1 30.6752 5.59 29.7052C3.91 26.5152 3.21 24.3752 3.21 23.5452C3.21 20.3552 5.8 17.7652 8.99 17.7652H8.98ZM5.73 36.2652C6.68 37.7652 7.43 38.8652 7.66 39.2052C7.96 39.6352 8.45 39.8952 8.98 39.8952C9.51 39.8952 10 39.6352 10.3 39.2052C10.36 39.1252 11.41 37.5852 12.73 35.4652C13.91 36.1152 15.16 36.7152 16.46 37.2552C15.35 40.3252 14.7 43.3752 14.52 46.3552H3.45C3.63 42.8052 4.43 39.4052 5.73 36.2752V36.2652Z" fill="white"/>
<path d="M7.51023 27.0152C7.97023 27.1852 8.46023 27.2852 8.98023 27.2852C11.3202 27.2852 13.2202 25.3852 13.2202 23.0452C13.2202 22.5252 13.1202 22.0252 12.9502 21.5652C12.3502 19.9552 10.8002 18.8052 8.98023 18.8052C6.64023 18.8052 4.74023 20.7052 4.74023 23.0452C4.74023 24.8652 5.89023 26.4152 7.51023 27.0152ZM8.98023 21.0852C10.0602 21.0852 10.9302 21.9652 10.9302 23.0352C10.9302 23.1352 10.9302 23.2252 10.9102 23.3152C10.7902 24.1652 10.1102 24.8352 9.26023 24.9652C9.17023 24.9752 9.07023 24.9852 8.97023 24.9852C7.89023 24.9852 7.02023 24.1052 7.02023 23.0352C7.02023 21.9652 7.90023 21.0852 8.97023 21.0852H8.98023Z" fill="white"/>
<path d="M53.7498 15.4448C56.4998 15.4448 58.7398 13.2048 58.7398 10.4548C58.7398 7.70484 56.4998 5.46484 53.7498 5.46484C50.9998 5.46484 48.7598 7.70484 48.7598 10.4548C48.7598 13.2048 50.9998 15.4448 53.7498 15.4448ZM53.7498 7.75484C55.2398 7.75484 56.4498 8.96484 56.4498 10.4548C56.4498 11.9448 55.2398 13.1548 53.7498 13.1548C52.2598 13.1548 51.0498 11.9448 51.0498 10.4548C51.0498 8.96484 52.2598 7.75484 53.7498 7.75484Z" fill="white"/>
</g>
<defs>
<clipPath id="clip0_70_848">
<rect width="67.68" height="81.37" fill="white" transform="translate(0 0.314941)"/>
</clipPath>
</defs>
</svg>
