<svg width="84" height="87" viewBox="0 0 84 87" fill="none" xmlns="http://www.w3.org/2000/svg">
<path d="M56.7178 71.5812L51.1642 67.4849L48.5413 77.1348L56.7178 71.5812Z" fill="#02284D"/>
<path d="M59.0008 72.3909C58.8928 72.3909 58.8928 72.3909 59.0008 72.3909L47.3917 80.2436H46.2421C46.2421 80.2436 40.8504 76.6492 37.5798 78.2845C36.7702 78.7702 35.6207 78.9321 34.4711 78.9321C30.3909 78.9321 25.485 76.4873 25.1611 76.3092C24.6754 76.1473 24.5135 75.4996 24.6754 74.9977C24.8373 74.5119 25.485 74.35 25.9869 74.512C27.946 75.4996 33.8234 77.7826 36.6083 76.4711C39.8789 74.8358 44.121 76.7949 46.0802 77.7826L49.5127 65.5258V65.3639C49.5127 65.3639 49.5127 65.202 49.6746 65.202L72.5528 36.6083V11.4472H61.4456C60.9599 11.4472 60.458 10.9614 60.458 10.4595V0H0V86.121H72.7309V52.9453L59.0008 72.3909ZM8.50039 7.51272H41.5143C42 7.51272 42.5019 7.99846 42.5019 8.50039C42.5019 9.00231 42.0162 9.48805 41.5143 9.48805H8.50039C8.01465 9.48805 7.51272 9.00231 7.51272 8.50039C7.51272 7.99846 7.99846 7.51272 8.50039 7.51272ZM8.50039 17.1465H58.3531C58.8389 17.1465 59.3408 17.6322 59.3408 18.1342C59.3408 18.6361 58.855 19.1218 58.3531 19.1218H8.50039C8.01465 19.1218 7.51272 18.6361 7.51272 18.1342C7.51272 17.4865 7.99846 17.1465 8.50039 17.1465ZM8.50039 22.8782H58.3531C58.8389 22.8782 59.3408 23.3639 59.3408 23.8658C59.3408 24.3678 58.855 24.8535 58.3531 24.8535H8.50039C8.01465 24.8535 7.51272 24.3678 7.51272 23.8658C7.51272 23.3639 7.99846 22.8782 8.50039 22.8782ZM53.6091 41.0123C53.6091 41.4981 53.1234 42 52.6214 42H16.175C15.6893 42 15.1874 41.5143 15.1874 41.0123C15.1874 40.5104 15.6731 40.0247 16.175 40.0247H52.6214C53.1072 40.0247 53.6091 40.5104 53.6091 41.0123ZM8.50039 28.5937H41.5143C42 28.5937 42.5019 29.0794 42.5019 29.5813C42.5019 30.0833 42.0162 30.569 41.5143 30.569H8.50039C8.01465 30.569 7.51272 30.0833 7.51272 29.5813C7.51272 29.0794 7.99846 28.5937 8.50039 28.5937ZM8.50039 34.3092H33.3377C33.8234 34.3092 34.3254 34.7949 34.3254 35.2968C34.3254 35.7988 33.8396 36.2845 33.3377 36.2845H8.50039C8.01465 36.2845 7.51272 35.7988 7.51272 35.2968C7.51272 34.7949 7.99846 34.3092 8.50039 34.3092ZM7.52891 46.7278C7.52891 46.2421 8.01465 45.7402 8.51658 45.7402H52.6376C53.1234 45.7402 53.6253 46.2259 53.6253 46.7278C53.6253 47.2298 53.1395 47.7155 52.6376 47.7155H8.51658C8.03084 47.7155 7.52891 47.3917 7.52891 46.7278Z" fill="#02284D"/>
<path d="M62.595 0.32373V9.47176H71.9049L62.595 0.32373Z" fill="#02284D"/>
<path d="M51.9739 65.8495L58.0132 70.4316L72.8929 49.5126L78.2846 42.1618L73.7025 38.7292L51.9739 65.8495Z" fill="#02284D"/>
<path d="M79.4341 30.8767L75.0139 37.0941L79.4341 40.5267L84 34.3092L79.4341 30.8767Z" fill="#02284D"/>
</svg>
