<svg width="102" height="98" viewBox="0 0 102 98" fill="none" xmlns="http://www.w3.org/2000/svg">
<path d="M13.2385 60.8518C11.5769 59.1902 10.7563 58.7799 10.3461 58.7799C10.1409 58.7799 9.93579 58.7799 9.93579 58.985C7.45366 60.2364 1.23809 64.5647 0.622686 65.816C0.417551 66.4314 0.417553 67.0673 1.03296 68.2981C1.23809 68.9136 1.64836 69.7546 1.85349 70.5751C2.87917 74.7189 2.67403 79.6831 2.4689 84.2371C2.26376 88.9962 2.05863 93.5502 3.0843 96.8734C3.0843 97.0101 3.15268 97.0785 3.28943 97.0785C3.6997 97.2837 4.95102 97.0785 6.38696 96.258C7.63828 95.4374 10.1204 94.3913 13.0128 92.9348C17.5668 90.8629 25.8542 86.7192 26.6748 85.4884C27.085 84.6679 26.8799 83.2114 26.0594 81.1396C23.7824 76.3804 16.336 63.9493 13.2179 60.8518H13.2385ZM14.4898 85.0781C13.2385 85.2833 12.0077 84.2576 11.8025 83.0063C11.5974 81.5498 12.6231 80.319 13.8744 80.319C15.3308 80.1139 16.5616 81.1396 16.5616 82.3909C16.9719 83.6422 15.9462 84.873 14.4898 85.0781Z" fill="#02284D"/>
<path d="M67.907 4.72702L54.4502 0.378174L41.1985 4.72702V17.3633H67.907V4.72702Z" fill="#02284D"/>
<path d="M82.8202 39.1075L89.0152 26.8815H17.5874L23.803 39.1075H82.8202Z" fill="#02284D"/>
<path d="M100.626 55.8669C98.9644 54.4105 95.6617 54.0002 93.3847 54.2053C87.1692 55.0259 77.6509 60.2158 72.4815 64.3595C72.2764 64.9749 71.8661 65.3852 71.4559 65.816C69.9994 67.2724 67.3121 67.6827 64.4197 67.6827C59.6606 67.6827 53.6502 66.2262 48.8911 64.9954C48.4808 64.9954 48.2757 64.7903 48.0705 64.7903C47.4551 64.5851 47.0449 63.9697 47.25 63.3338C47.4551 62.7184 48.0705 62.3082 48.7064 62.5133C48.9116 62.5133 49.3218 62.7184 49.527 62.7184C51.804 63.3338 55.9477 64.38 60.2965 64.9954C66.5121 65.816 68.9942 64.9954 70.0199 63.9697C70.2251 63.7646 70.4302 63.5595 70.6353 63.1492V62.7389C70.8405 62.3287 70.8405 61.7133 70.6353 61.0773C70.4302 59.826 69.384 58.3901 67.7429 57.3439C59.8658 51.7437 40.2139 50.5129 34.4086 51.5386C29.2392 52.5643 22.1826 56.708 17.2183 59.6209C16.808 59.826 16.6029 60.0312 16.1926 60.2363C16.3294 60.373 16.4661 60.5098 16.6029 60.6466C18.0594 62.3082 19.7004 64.7903 21.362 67.4775C21.5672 67.6827 21.5672 67.8878 21.7723 68.0929C21.9774 68.5032 22.3877 68.9135 22.5928 69.3443C22.798 69.5494 22.798 69.7545 23.0031 69.9597C23.2082 70.1648 23.2082 70.3699 23.4134 70.5751C23.6185 70.7802 23.6185 70.9853 23.8236 71.1905C24.0288 71.3956 24.0288 71.6007 24.2339 71.8059V72.011C24.439 72.2161 24.439 72.4213 24.6442 72.6264C24.6442 72.8316 24.8493 73.0367 24.8493 73.0367V73.2418C24.8493 73.447 25.0544 73.6521 25.0544 73.8572V74.0624C25.0544 74.2675 25.2596 74.4726 25.2596 74.6778V74.8829C25.2596 75.088 25.4647 75.088 25.4647 75.2932V75.4983C25.4647 75.7034 25.6698 75.9086 25.6698 75.9086V76.1137C25.6698 76.3188 25.875 76.524 25.875 76.524V76.7291C25.875 76.9342 26.0801 76.9342 26.0801 77.1394V77.3445C26.0801 77.5496 26.2852 77.5496 26.2852 77.7548V77.9599C26.2852 78.1651 26.4904 78.165 26.4904 78.3702C26.4904 78.5753 26.6955 78.5753 26.6955 78.7804C26.6955 78.9856 26.9007 78.9856 26.9007 79.1907C31.6598 77.324 35.5984 76.7086 38.901 76.7086C43.0447 76.7086 46.3474 77.7343 49.8757 78.7804C53.8143 80.0318 57.958 81.4677 63.9479 80.8523C68.0917 80.6472 77.4048 76.5035 86.3076 71.1289C96.872 64.7082 101.631 59.744 101.426 57.8772C101.631 57.0567 101.426 56.4208 100.605 55.8054L100.626 55.8669Z" fill="#02284D"/>
<path d="M30.2237 6.38843H25.4646V11.1475H30.2237V6.38843Z" fill="#02284D"/>
<path d="M22.9622 6.38843H18.2031V11.1475H22.9622V6.38843Z" fill="#02284D"/>
<path d="M15.7205 6.38843H10.9614V11.1475H15.7205V6.38843Z" fill="#02284D"/>
<path d="M98.1231 6.38843H93.364V11.1475H98.1231V6.38843Z" fill="#02284D"/>
<path d="M90.8817 6.38843H86.1226V11.1475H90.8817V6.38843Z" fill="#02284D"/>
<path d="M83.6405 6.38843H78.8813V11.1475H83.6405V6.38843Z" fill="#02284D"/>
</svg>
