<svg width="101" height="52" viewBox="0 0 101 52" fill="none" xmlns="http://www.w3.org/2000/svg">
<g clip-path="url(#clip0_70_842)">
<path d="M99.68 46.8398C99.05 46.8398 98.54 47.3498 98.54 47.9798C98.54 48.9098 97.84 49.6598 96.97 49.6598C96.1 49.6598 95.4 48.9098 95.4 47.9798C95.4 47.3498 94.89 46.8398 94.26 46.8398H94.21C93.58 46.8398 93.07 47.3498 93.07 47.9798C93.07 48.9098 92.37 49.6598 91.5 49.6598C90.72 49.6598 90.07 49.0398 89.95 48.2398L95.66 32.1798L97 28.6898C97.19 28.1998 97.12 27.6398 96.82 27.2098C96.52 26.7798 96.03 26.5198 95.5 26.5198H80.62C80.23 26.5198 79.86 26.6598 79.56 26.9198L79.37 27.0898V22.4698C79.37 21.8398 78.86 21.3298 78.23 21.3298H77.44V14.3198C77.44 13.6898 76.93 13.1798 76.3 13.1798H66.16C65.53 13.1798 65.02 13.6898 65.02 14.3198V21.3298H64.19V14.3198C64.19 13.6898 63.68 13.1798 63.05 13.1798H52.91C52.28 13.1798 51.77 13.6898 51.77 14.3198V21.3298H47.77C47.14 21.3298 46.63 21.8398 46.63 22.4698V28.6498H40.74L37.28 15.4498C37.1 14.7498 36.46 14.2498 35.73 14.2498H30.85V1.6498C30.85 0.769805 30.13 0.0498047 29.25 0.0498047H18.8C17.92 0.0498047 17.2 0.769805 17.2 1.6498V14.2498H11.26C10.53 14.2498 9.90002 14.7398 9.71002 15.4498L6.23002 28.7198H2.63002C2.18002 28.7298 1.74002 28.9198 1.44002 29.2598C1.14002 29.5998 0.99002 30.0498 1.04002 30.4998C1.06002 30.6798 1.54002 35.0798 2.67002 39.8098C3.48002 43.2198 4.40002 45.8998 5.45002 47.8598C5.45002 47.8998 5.44002 47.9398 5.44002 47.9698C5.44002 48.8998 4.74002 49.6498 3.87002 49.6498C3.00002 49.6498 2.30002 48.8998 2.30002 47.9698C2.30002 47.3398 1.79002 46.8298 1.16002 46.8298C0.53002 46.8298 0.0200195 47.3398 0.0200195 47.9698C0.0200195 50.1598 1.75002 51.9398 3.88002 51.9398C4.95002 51.9398 5.92002 51.4898 6.62002 50.7598C7.32002 51.4898 8.29002 51.9398 9.36002 51.9398C10.43 51.9398 11.4 51.4898 12.1 50.7598C12.8 51.4898 13.77 51.9398 14.84 51.9398C15.91 51.9398 16.88 51.4898 17.58 50.7598C18.28 51.4898 19.25 51.9398 20.32 51.9398C21.39 51.9398 22.36 51.4898 23.06 50.7598C23.76 51.4898 24.73 51.9398 25.8 51.9398C26.87 51.9398 27.84 51.4898 28.54 50.7598C29.24 51.4898 30.21 51.9398 31.28 51.9398C32.35 51.9398 33.32 51.4898 34.02 50.7598C34.72 51.4898 35.69 51.9398 36.76 51.9398C37.83 51.9398 38.8 51.4898 39.5 50.7598C40.2 51.4898 41.17 51.9398 42.24 51.9398C43.31 51.9398 44.28 51.4898 44.98 50.7598C45.68 51.4898 46.65 51.9398 47.72 51.9398C48.79 51.9398 49.73 51.4998 50.43 50.7898C51.13 51.4998 52.08 51.9398 53.14 51.9398C54.2 51.9398 55.18 51.4898 55.88 50.7598C56.58 51.4898 57.55 51.9398 58.62 51.9398C59.69 51.9398 60.66 51.4898 61.36 50.7598C62.06 51.4898 63.03 51.9398 64.1 51.9398C65.17 51.9398 66.14 51.4898 66.84 50.7598C67.54 51.4898 68.51 51.9398 69.58 51.9398C70.65 51.9398 71.62 51.4898 72.32 50.7598C73.02 51.4898 73.99 51.9398 75.06 51.9398C76.13 51.9398 77.1 51.4898 77.8 50.7598C78.5 51.4898 79.47 51.9398 80.54 51.9398C81.61 51.9398 82.58 51.4898 83.28 50.7598C83.98 51.4898 84.95 51.9398 86.02 51.9398C86.92 51.9398 87.76 51.6198 88.41 51.0798C88.56 51.0098 88.69 50.9298 88.81 50.8198C89.5 51.5098 90.45 51.9398 91.49 51.9398C92.53 51.9398 93.53 51.4898 94.23 50.7598C94.93 51.4898 95.9 51.9398 96.97 51.9398C99.1 51.9398 100.83 50.1598 100.83 47.9698C100.83 47.3398 100.32 46.8298 99.69 46.8298L99.68 46.8398ZM27.63 5.2698H20.39V3.2498H27.63V5.2698ZM20.39 14.2498V8.4798H27.63V14.2498H20.39ZM18.62 17.4498C18.67 17.4498 18.73 17.4498 18.78 17.4498H29.23C29.29 17.4498 29.34 17.4498 29.39 17.4498H34.47L37.4 28.6498L37.42 28.7098H9.53002L12.48 17.4498H18.62ZM9.51002 31.9098H39.5C39.65 31.9098 39.79 31.8898 39.93 31.8498H78.19C78.58 31.8498 78.95 31.7098 79.25 31.4498L81.22 29.7198H93.17L92.66 31.0598C92.66 31.0598 92.66 31.0798 92.65 31.0998L91.52 34.2798H4.81002C4.66002 33.3798 4.54002 32.5798 4.44002 31.9198H9.50002L9.51002 31.9098ZM48.9 28.6498V23.6198H56.75V29.2698H48.9V28.6598V28.6498ZM54.04 15.4598H61.89V21.1098H54.04V15.4598ZM67.29 15.4598H75.14V21.1098H67.29V15.4598ZM77.08 29.2598H69.23V23.6098H77.08V29.2598ZM66.89 23.6098V29.2598H59.04V23.6098H66.89ZM86.01 49.6598C85.93 49.6598 85.85 49.6598 85.77 49.6398C85.02 49.5098 84.44 48.8198 84.44 47.9798C84.44 47.3498 83.93 46.8398 83.3 46.8398H83.25C82.62 46.8398 82.11 47.3498 82.11 47.9798C82.11 48.9098 81.41 49.6598 80.54 49.6598C79.67 49.6598 78.97 48.9098 78.97 47.9798C78.97 47.3498 78.46 46.8398 77.83 46.8398H77.78C77.15 46.8398 76.64 47.3498 76.64 47.9798C76.64 48.9098 75.94 49.6598 75.07 49.6598C74.2 49.6598 73.5 48.9098 73.5 47.9798C73.5 47.3498 72.99 46.8398 72.36 46.8398H72.3C71.67 46.8398 71.16 47.3498 71.16 47.9798C71.16 48.9098 70.46 49.6598 69.59 49.6598C68.72 49.6598 68.02 48.9098 68.02 47.9798C68.02 47.3498 67.51 46.8398 66.88 46.8398H66.83C66.2 46.8398 65.69 47.3498 65.69 47.9798C65.69 48.9098 64.99 49.6598 64.12 49.6598C63.25 49.6598 62.55 48.9098 62.55 47.9798C62.55 47.3498 62.04 46.8398 61.41 46.8398H61.36C60.73 46.8398 60.22 47.3498 60.22 47.9798C60.22 48.9098 59.52 49.6598 58.65 49.6598C57.78 49.6598 57.08 48.9098 57.08 47.9798C57.08 47.3498 56.57 46.8398 55.94 46.8398H55.89C55.26 46.8398 54.75 47.3498 54.75 47.9798C54.75 48.9098 54.05 49.6598 53.18 49.6598C52.31 49.6598 51.64 48.9298 51.61 48.0298C51.61 48.0098 51.61 47.9998 51.61 47.9798C51.61 47.3498 51.1 46.8398 50.47 46.8398C49.84 46.8398 49.33 47.3498 49.33 47.9798C49.33 47.9998 49.33 48.0098 49.33 48.0298C49.31 48.9298 48.61 49.6598 47.76 49.6598C46.91 49.6598 46.19 48.9098 46.19 47.9798C46.19 47.3498 45.68 46.8398 45.05 46.8398H45C44.37 46.8398 43.86 47.3498 43.86 47.9798C43.86 48.9098 43.16 49.6598 42.29 49.6598C41.42 49.6598 40.72 48.9098 40.72 47.9798C40.72 47.3498 40.21 46.8398 39.58 46.8398H39.53C38.9 46.8398 38.39 47.3498 38.39 47.9798C38.39 48.9098 37.69 49.6598 36.82 49.6598C35.95 49.6598 35.25 48.9098 35.25 47.9798C35.25 47.3498 34.74 46.8398 34.11 46.8398H34.06C33.43 46.8398 32.92 47.3498 32.92 47.9798C32.92 48.9098 32.22 49.6598 31.35 49.6598C30.48 49.6598 29.78 48.9098 29.78 47.9798C29.78 47.3498 29.27 46.8398 28.64 46.8398H28.59C27.96 46.8398 27.45 47.3498 27.45 47.9798C27.45 48.9098 26.75 49.6598 25.88 49.6598C25.01 49.6598 24.31 48.9098 24.31 47.9798C24.31 47.3498 23.8 46.8398 23.17 46.8398H23.12C22.49 46.8398 21.98 47.3498 21.98 47.9798C21.98 48.9098 21.28 49.6598 20.41 49.6598C19.54 49.6598 18.84 48.9098 18.84 47.9798C18.84 47.3498 18.33 46.8398 17.7 46.8398H17.65C17.02 46.8398 16.51 47.3498 16.51 47.9798C16.51 48.9098 15.81 49.6598 14.94 49.6598C14.07 49.6598 13.37 48.9098 13.37 47.9798C13.37 47.3498 12.86 46.8398 12.23 46.8398H12.18C11.55 46.8398 11.04 47.3498 11.04 47.9798C11.04 48.3398 10.93 48.6798 10.75 48.9498C10.64 48.8698 10.52 48.7898 10.39 48.7298C8.87002 48.0698 7.20002 44.4698 5.92002 39.0898C5.68002 38.0698 5.46002 37.0498 5.28002 36.0998H90.99L86.37 49.0798C86.31 49.2598 86.28 49.4498 86.28 49.6298C86.28 49.6298 86.28 49.6398 86.28 49.6498C86.23 49.6498 86.19 49.6498 86.14 49.6498L86.01 49.6598Z" fill="white"/>
</g>
<defs>
<clipPath id="clip0_70_842">
<rect width="100.83" height="51.9" fill="white" transform="translate(0 0.0498047)"/>
</clipPath>
</defs>
</svg>
