<svg width="68" height="68" viewBox="0 0 68 68" fill="none" xmlns="http://www.w3.org/2000/svg">
<rect x="0.5" y="0.5" width="67" height="67" stroke="white"/>
<path d="M33.5001 49.9001C37.8496 49.9001 42.0211 48.1722 45.0966 45.0966C48.1722 42.0211 49.9001 37.8496 49.9001 33.5001C49.9001 29.1505 48.1722 24.9791 45.0966 21.9035C42.0211 18.828 37.8496 17.1001 33.5001 17.1001C29.1505 17.1001 24.9791 18.828 21.9035 21.9035C18.828 24.9791 17.1001 29.1505 17.1001 33.5001C17.1001 37.8496 18.828 42.0211 21.9035 45.0966C24.9791 48.1722 29.1505 49.9001 33.5001 49.9001ZM27.3255 30.6465C27.2613 30.905 27.0989 31.1284 26.8728 31.2693C26.6468 31.4101 26.3747 31.4575 26.1144 31.4012C25.854 31.345 25.6257 31.1896 25.478 30.968C25.3302 30.7464 25.2745 30.4759 25.3226 30.2139V30.2037C25.4496 29.6967 25.6722 29.2187 25.9786 28.7953C26.3109 28.3346 26.7508 27.9621 27.2599 27.7102C27.7691 27.4583 28.3321 27.3347 28.8999 27.3501C30.0315 27.3501 30.9519 27.7908 31.5813 28.5001C32.1922 29.191 32.4792 30.0827 32.4792 30.9376C32.4792 31.653 32.3377 32.266 32.0589 32.7949C31.8036 33.2653 31.4489 33.6745 31.0196 33.9941C30.7041 34.2267 30.3756 34.4409 30.0356 34.6358L29.9208 34.7055C29.5764 34.9105 29.2935 35.0888 29.0495 35.3C28.2418 35.999 27.7129 36.7391 27.4833 37.6001H31.4501C31.7219 37.6001 31.9827 37.7081 32.1749 37.9003C32.3671 38.0925 32.4751 38.3533 32.4751 38.6251C32.4751 38.8969 32.3671 39.1577 32.1749 39.3499C31.9827 39.5421 31.7219 39.6501 31.4501 39.6501H26.3251C26.0533 39.6501 25.7925 39.5421 25.6003 39.3499C25.4081 39.1577 25.3001 38.8969 25.3001 38.6251C25.3001 36.5546 26.2738 34.9884 27.7047 33.7502C28.0942 33.4099 28.5165 33.1557 28.8671 32.9445L28.986 32.8728C29.2542 32.7208 29.5136 32.5538 29.7629 32.3726C29.9595 32.2323 30.1226 32.0503 30.2406 31.8396C30.3773 31.5594 30.4408 31.249 30.4251 30.9376C30.4309 30.5438 30.2949 30.161 30.0417 29.8593C29.8162 29.6051 29.4616 29.4001 28.8937 29.4001C28.2172 29.4001 27.8585 29.6994 27.635 30.0048C27.5008 30.1915 27.399 30.3994 27.3337 30.6198L27.3255 30.6465ZM35.5501 27.3501C35.8219 27.3501 36.0827 27.4581 36.2749 27.6503C36.4671 27.8425 36.5751 28.1033 36.5751 28.3751V33.5001H39.6501V28.3751C39.6501 28.1033 39.7581 27.8425 39.9503 27.6503C40.1425 27.4581 40.4032 27.3501 40.6751 27.3501C40.9469 27.3501 41.2077 27.4581 41.3999 27.6503C41.5921 27.8425 41.7001 28.1033 41.7001 28.3751V38.6251C41.7001 38.8969 41.5921 39.1577 41.3999 39.3499C41.2077 39.5421 40.9469 39.6501 40.6751 39.6501C40.4032 39.6501 40.1425 39.5421 39.9503 39.3499C39.7581 39.1577 39.6501 38.8969 39.6501 38.6251V35.5501H35.5501C35.2782 35.5501 35.0175 35.4421 34.8253 35.2499C34.6331 35.0577 34.5251 34.7969 34.5251 34.5251V28.3751C34.5251 28.1033 34.6331 27.8425 34.8253 27.6503C35.0175 27.4581 35.2782 27.3501 35.5501 27.3501Z" fill="white"/>
</svg>
