<svg width="68" height="68" viewBox="0 0 68 68" fill="none" xmlns="http://www.w3.org/2000/svg">
<rect x="0.5" y="0.5" width="67" height="67" stroke="white"/>
<path d="M34.0001 11C29.1839 11 25.2803 14.9045 25.2808 19.7202C25.2808 24.0911 28.5173 27.7868 32.8501 28.3636V55.85C32.8501 56.155 32.9712 56.4475 33.1869 56.6632C33.4026 56.8788 33.6951 57 34.0001 57C34.3051 57 34.5976 56.8788 34.8132 56.6632C35.0289 56.4475 35.1501 56.155 35.1501 55.85V28.3632C39.4833 27.7868 42.7194 24.0911 42.7194 19.7202C42.7198 14.904 38.8163 11 34.0001 11ZM34.8483 13.0838C36.4606 13.2379 37.9892 14.0167 39.0743 15.221C40.2584 16.508 40.8876 18.2836 40.7754 20.0303C40.717 21.9696 39.6916 23.7977 38.169 24.9688C38.1792 24.9366 38.2164 24.8271 38.2164 24.8271L38.1658 24.8331C38.733 24.4348 38.6461 23.6399 39.0637 23.1288C39.222 22.5823 38.6617 22.1923 38.9828 21.6867C38.7045 21.7203 38.2118 21.3877 37.9036 21.8404C37.5517 21.845 37.2104 22.2488 36.8833 22.0382C36.4486 21.7806 35.9495 21.4783 35.8267 20.9512C35.8796 20.5399 35.7531 20.0132 35.7922 19.6324C35.9868 18.9727 36.5107 18.5767 36.6188 17.9253C36.6639 17.8857 37.0434 17.5895 37.0591 17.5775C37.5214 17.4579 38.1497 16.716 38.4257 17.4598C38.52 17.5279 39.1498 17.8448 39.0932 17.5946C39.1088 17.2036 40.1512 17.4161 39.6153 16.9046C39.5601 16.8719 39.3489 16.8098 39.2091 16.8489C39.1516 16.8627 38.9041 17.1373 38.6925 16.7689C38.3673 16.4657 38.6755 17.5808 38.239 17.0044C38.6879 16.8549 37.6681 16.3332 37.9082 16.6364C38.2606 17.2353 37.6042 16.842 37.7233 16.4294C37.1547 16.3595 37.4307 17.4271 36.8976 17.5909H36.9082L36.8148 17.6033L36.6722 17.6171C36.5406 17.4828 36.157 17.4658 36.2706 17.078C36.0287 16.6594 36.2683 16.4993 36.6961 16.5389C37.1281 16.2629 35.7982 15.9317 36.6524 15.7877C36.2784 15.8116 36.122 15.8259 36.0737 15.3645C36.1335 15.9367 35.3943 15.5793 35.7908 15.2389C35.9417 15.1377 35.444 14.9307 35.8626 14.8599C36.1427 14.8447 36.6938 15.98 36.795 15.2992C36.9855 15.238 36.6179 14.8746 36.7062 14.8553C36.2104 15.013 36.065 14.1423 36.0609 13.8166C36.5006 13.8336 36.956 13.7085 36.2886 13.6064C35.8884 13.4251 35.4762 13.2568 35.0447 13.185L34.8483 13.0838ZM32.3307 13.2963L32.523 13.3115C33.1748 13.3327 33.8404 13.2623 34.4817 13.386C34.4909 13.6841 34.5567 14.2398 33.9748 14.22C33.4964 14.2467 33.0419 15.3346 32.7728 14.5498C32.8041 14.1473 33.4973 13.3354 32.6605 13.6307C32.4821 13.8879 32.5281 14.3663 32.1978 14.3097C32.0805 14.7334 31.7502 14.4808 31.6849 14.2973C31.5262 14.3902 31.8031 14.6285 31.6251 14.7554C32.1389 14.4104 31.6669 15.1874 31.9609 15.387C31.6803 15.6566 32.1817 16.3457 31.5906 16.1713C31.0455 16.0844 32.0147 15.4827 31.3468 15.7697C30.9273 15.864 30.9493 16.1037 31.2635 16.1667C30.9815 16.4312 30.6227 16.4459 30.4558 16.3268C30.0151 16.6063 29.6151 16.9453 29.2671 17.3342C28.7496 17.3586 28.8655 18.4065 28.6167 18.3002C28.5891 17.9782 28.6995 17.4602 28.3697 17.5352C28.0159 17.4184 27.7905 18.4304 27.9363 18.688C28.383 18.1456 27.9658 19.0785 28.0743 19.2602C28.3352 19.6577 27.9032 20.3679 28.5215 20.5045C28.7404 20.0804 28.9437 20.465 28.992 20.4139C29.1935 20.3785 29.3361 20.8753 29.6972 20.8081C30.1158 20.7644 29.9088 21.5869 30.4801 21.6775C31.177 21.8799 31.1048 22.8142 31.8726 22.9306C32.3266 23.196 33.5976 23.3119 33.1997 24.0419C32.6049 24.2866 32.9862 25.3699 32.1108 25.1583C31.8348 25.2379 31.7852 25.605 31.4595 25.6561L31.2902 25.6804C30.8207 25.4546 30.3787 25.1754 29.9732 24.8483C29.9456 24.7922 29.9162 24.737 29.8959 24.6873L29.9281 24.7195C29.8628 24.5567 29.7667 24.4067 29.683 24.2531C29.343 23.65 28.7749 23.2066 28.5302 22.5432C28.0615 21.9439 28.4428 21.3003 28.349 20.6756C28.3214 20.3444 28.2404 20.8721 28.1295 20.4525C27.8765 19.9341 27.8765 19.1599 27.6318 18.7413L27.5881 18.6815C27.7206 17.7717 28.032 16.8894 28.5394 16.1166C29.395 14.7403 30.7828 13.7379 32.3307 13.2963ZM35.0502 13.3851C35.174 13.3782 35.5907 13.5245 35.2963 13.5608L35.1583 13.5144C34.9992 13.4228 34.9941 13.3879 35.0502 13.3851ZM32.2705 13.5061C32.1821 13.4978 32.2143 13.5875 32.3165 13.5171C32.3016 13.5117 32.2862 13.508 32.2705 13.5061ZM31.9029 14.0047C31.8675 14.0093 31.8017 14.0411 31.6964 14.116C31.5653 14.1726 31.3022 14.5195 31.6104 14.2628C31.8413 14.2241 32.0106 13.9909 31.9029 14.0047ZM36.6271 14.1754C36.5627 14.18 36.772 14.3493 36.6731 14.1846C36.6584 14.1788 36.6429 14.1757 36.6271 14.1754ZM31.1899 14.2522C31.1347 14.2485 31.0542 14.2734 30.9415 14.3396C30.5735 14.3709 30.5537 15.1805 30.5643 15.1317C30.6733 15.059 30.7699 14.8369 30.9112 14.8497C31.1743 14.8221 31.4264 14.2697 31.1899 14.2522ZM34.5994 14.2678C34.8649 14.2563 35.2812 14.4684 34.7043 14.5397C34.6109 14.5397 34.5084 14.5222 34.4375 14.4546C34.3883 14.323 34.4789 14.2729 34.5994 14.2678ZM36.6423 14.3727C36.5319 14.3626 37.0641 14.738 36.8392 14.4546C36.7279 14.3985 36.6681 14.375 36.6423 14.3727ZM35.5319 14.5811C35.5641 14.5673 35.6216 14.7467 35.5158 14.628C35.5181 14.5981 35.525 14.5843 35.5319 14.5811ZM35.9399 14.6791C35.9656 14.686 36.0613 14.8847 35.9477 14.7554C35.9307 14.6961 35.9311 14.6768 35.9399 14.6791ZM37.0959 14.68C37.0407 14.68 37.0448 14.7389 37.2127 14.8875C37.2619 15.1124 37.146 15.2205 37.3967 15.0176C37.4501 14.8415 37.1892 14.68 37.0959 14.68ZM29.7745 15.5002C29.6954 15.491 29.7658 15.8539 29.8555 15.5784C29.8196 15.5241 29.7929 15.5025 29.7745 15.5002ZM31.0289 15.6603C30.9788 15.6598 31.0257 15.7776 31.1136 15.7113C31.0731 15.6736 31.0455 15.6607 31.0289 15.6603ZM38.7141 15.7086C38.6111 15.7205 38.9423 16.4137 39.0214 16.0977C39.4409 16.0333 38.957 15.6759 38.8632 15.83C38.785 15.7394 38.7381 15.7058 38.7141 15.7086ZM29.7846 15.8355C29.723 15.8493 29.6857 16.2265 29.8118 15.8553C29.8026 15.8392 29.7938 15.8332 29.7846 15.8355ZM37.968 16.2173C37.9225 16.2095 37.957 16.2583 38.1585 16.4087C38.2215 16.3898 38.5334 16.6801 38.4602 16.5172C38.3415 16.3995 38.0435 16.2297 37.968 16.2173ZM29.6287 16.2201C29.562 16.2063 29.4313 16.434 29.659 16.2753C29.6558 16.2394 29.6443 16.2228 29.6287 16.2201ZM38.8655 16.5218C38.8305 16.5366 38.992 16.7656 38.9796 16.601C38.9106 16.5356 38.877 16.5168 38.8655 16.5218ZM37.4777 16.8346C37.5614 16.8213 37.5117 17.2077 37.3479 17.0168C37.4068 16.8875 37.4491 16.8388 37.4777 16.8346ZM39.1981 16.9703C39.2896 16.9584 39.3683 17.2178 39.1143 17.0968C39.136 17.0085 39.1677 16.974 39.1981 16.9703ZM34.2623 17.3457C34.3607 17.3544 34.3423 17.5145 34.127 17.4032C34.1831 17.3572 34.2296 17.3429 34.2623 17.3457ZM28.8554 18.1912C28.8922 18.1907 28.975 18.4667 28.843 18.3099C28.8356 18.222 28.843 18.1912 28.8554 18.1912ZM28.7818 18.4138C28.8186 18.4203 28.8016 18.774 28.7271 18.5578C28.7519 18.4488 28.7694 18.412 28.7823 18.4138M28.4051 18.5279C28.4423 18.532 28.4952 18.5463 28.5665 18.5721C28.6999 18.9465 29.0643 19.0679 28.9612 19.2331C29.2234 19.338 29.6052 19.8357 28.9874 19.6135C28.5767 19.4479 29.1305 19.2998 28.6447 19.1687C28.6259 18.9644 28.1429 18.5008 28.4051 18.5279ZM36.065 18.6314C36.1266 18.6314 36.1745 18.8798 35.9932 18.8361C36.0061 18.6829 36.0374 18.6314 36.065 18.6314ZM28.9056 18.7436C28.929 18.7285 28.9893 18.8099 28.9603 18.9125L28.9299 18.8918C28.8904 18.7961 28.8913 18.7528 28.9056 18.7436ZM35.6032 18.7538C35.778 18.7436 36.0885 18.8858 35.6878 18.8991H35.553L35.5286 18.8876C35.4721 18.7933 35.524 18.7579 35.6032 18.7538ZM28.5399 19.246C28.6181 19.2621 28.8435 19.5128 28.584 19.4231C28.4989 19.2791 28.5044 19.2386 28.5399 19.246ZM29.43 19.6259C29.5275 19.6135 29.6586 19.8762 29.361 19.7547C29.3688 19.665 29.3978 19.6301 29.43 19.6259ZM29.9047 20.1181C29.9438 20.1338 29.9797 20.7299 29.8739 20.4479L29.8688 20.35C29.8775 20.1724 29.8918 20.1131 29.9047 20.1181ZM34.6427 20.5156C34.7167 20.5234 34.9518 20.6766 34.7025 20.6269C34.6086 20.5381 34.6091 20.5119 34.6427 20.5156ZM35.0061 20.5984C35.0728 20.597 35.0484 20.8021 34.9449 20.6398C34.9702 20.6103 34.9909 20.5984 35.0061 20.5984ZM34.9454 20.7759C35.0479 20.7594 34.967 20.9636 34.8428 20.8297C34.8724 20.8042 34.9075 20.7857 34.9454 20.7759ZM38.7174 22.0598C38.7555 22.0639 38.7344 22.2479 38.6603 22.1334C38.6865 22.0773 38.7045 22.0584 38.7174 22.0598Z" fill="white"/>
</svg>
