<svg width="68" height="68" viewBox="0 0 68 68" fill="none" xmlns="http://www.w3.org/2000/svg">
<rect x="0.5" y="0.5" width="67" height="67" stroke="white"/>
<g clip-path="url(#clip0_84_83)">
<path d="M17.4631 48.8433C16.7346 49.6659 16.8939 50.9456 17.8047 51.5626L23.0261 53.6878C23.7774 54.1981 24.7944 54.0686 25.4015 53.3983L32.3685 45.6364L26.3578 38.9409L17.4631 48.8433ZM50.5372 48.8433C50.5372 48.8433 28.3765 24.1179 28.1185 23.6989C29.2872 23.0591 31.1694 22.3354 34.0002 22.3354C36.831 22.3354 38.7131 23.0591 39.8819 23.6989C39.6314 24.1255 35.6319 28.6196 35.6319 28.6196L41.635 35.2999L44.2306 32.4054C46.4087 29.9755 46.7578 26.4183 45.0957 23.6075L41.7792 18.0089C41.4529 17.4604 41.0279 16.9958 40.5042 16.6378C37.4154 14.5354 30.8355 14.3755 27.4962 16.6378C26.9725 16.9958 26.5475 17.4604 26.2212 18.0089L22.9123 23.5847C22.7984 23.7751 20.0966 28.3225 23.785 32.4206L42.614 53.3907C43.2212 54.0686 44.2381 54.1905 44.9895 53.6802L50.2109 51.555C51.114 50.9456 51.2734 49.6659 50.5372 48.8433Z" fill="white"/>
</g>
<defs>
<clipPath id="clip0_84_83">
<rect width="34" height="39" fill="white" transform="translate(17 15)"/>
</clipPath>
</defs>
</svg>
