<svg width="68" height="68" viewBox="0 0 68 68" fill="none" xmlns="http://www.w3.org/2000/svg">
<rect x="0.5" y="0.5" width="67" height="67" stroke="white"/>
<path d="M51.4273 22.7C51.4096 22.4208 51.2988 22.1555 51.1125 21.9468C50.9263 21.738 50.6753 21.5977 50.3999 21.5484C43.6421 20.3359 40.821 19.4594 34.5148 16.6109C34.353 16.5378 34.1775 16.5 33.9999 16.5C33.8224 16.5 33.6469 16.5378 33.4851 16.6109C27.1788 19.4594 24.3577 20.3359 17.5999 21.5484C17.3245 21.5977 17.0736 21.738 16.8873 21.9468C16.7011 22.1555 16.5902 22.4208 16.5726 22.7C16.2718 27.4742 16.9132 31.9227 18.4812 35.9219C19.7652 39.184 21.6654 42.1682 24.078 44.7117C28.2554 49.1438 32.6905 51.0688 33.5366 51.4094C33.8373 51.531 34.1735 51.531 34.4741 51.4094C35.3202 51.0688 39.7554 49.1438 43.9327 44.7117C46.3414 42.1673 48.2379 39.1831 49.5187 35.9219C51.0866 31.9227 51.728 27.4742 51.4273 22.7ZM41.1929 28.568L32.5366 38.568C32.4253 38.6969 32.2888 38.8018 32.1356 38.8761C31.9823 38.9504 31.8154 38.9925 31.6452 39H31.5937C31.2665 39.0001 30.9524 38.8719 30.7187 38.643L26.8749 34.8774C26.7576 34.7624 26.6642 34.6256 26.5998 34.4745C26.5354 34.3235 26.5014 34.1613 26.4998 33.9971C26.4964 33.6655 26.6249 33.3462 26.8569 33.1094C27.089 32.8726 27.4056 32.7376 27.7372 32.7342C28.0688 32.7309 28.3881 32.8594 28.6249 33.0914L31.5155 35.9266L39.3046 26.932C39.412 26.8079 39.5428 26.7061 39.6896 26.6326C39.8363 26.559 39.9961 26.515 40.1599 26.5032C40.3236 26.4914 40.4881 26.5119 40.6439 26.5636C40.7997 26.6154 40.9437 26.6973 41.0679 26.8047C41.192 26.9121 41.2938 27.0429 41.3674 27.1897C41.441 27.3364 41.4849 27.4962 41.4967 27.66C41.5086 27.8237 41.488 27.9882 41.4363 28.144C41.3846 28.2998 41.3026 28.4438 41.1952 28.568H41.1929Z" fill="white"/>
</svg>
